<?xml version="1.0" encoding="utf-8"?>
<!-- Generator: Adobe Illustrator 24.2.3, SVG Export Plug-In . SVG Version: 6.00 Build 0)  -->
<svg version="1.1" id="Layer_1" xmlns="http://www.w3.org/2000/svg" xmlns:xlink="http://www.w3.org/1999/xlink" x="0px" y="0px"
	 viewBox="0 0 1000 285" style="enable-background:new 0 0 1000 285;" xml:space="preserve">
<style type="text/css">
	.st0{fill:#6633C8;}
	.st1{fill:url(#SVGID_1_);}
	.st2{fill:#6015AF;}
	.st3{fill:#773DCA;}
	.st4{fill:#FFFFFF;}
	.st5{font-family:'CenturyGothic-Bold';}
	.st6{font-size:43.9612px;}
	.st7{fill:url(#SVGID_2_);}
	.st8{opacity:0.55;}
	.st9{clip-path:url(#SVGID_4_);fill:#4A4A49;}
	.st10{clip-path:url(#SVGID_4_);fill:#4B4B4A;}
	.st11{clip-path:url(#SVGID_4_);fill:#4C4C4B;}
	.st12{clip-path:url(#SVGID_4_);fill:#4D4D4C;}
	.st13{clip-path:url(#SVGID_4_);fill:#4E4E4D;}
	.st14{clip-path:url(#SVGID_4_);fill:#4F4F4E;}
	.st15{clip-path:url(#SVGID_4_);fill:#50504F;}
	.st16{clip-path:url(#SVGID_4_);fill:#515150;}
	.st17{clip-path:url(#SVGID_4_);fill:#525251;}
	.st18{clip-path:url(#SVGID_4_);fill:#535352;}
	.st19{clip-path:url(#SVGID_4_);fill:#545453;}
	.st20{clip-path:url(#SVGID_4_);fill:#555554;}
	.st21{clip-path:url(#SVGID_4_);fill:#565655;}
	.st22{clip-path:url(#SVGID_4_);fill:#575756;}
	.st23{clip-path:url(#SVGID_4_);fill:#585857;}
	.st24{clip-path:url(#SVGID_4_);fill:#595958;}
	.st25{clip-path:url(#SVGID_4_);fill:#5A5A59;}
	.st26{clip-path:url(#SVGID_4_);fill:#5B5B5A;}
	.st27{clip-path:url(#SVGID_4_);fill:#5C5C5B;}
	.st28{clip-path:url(#SVGID_4_);fill:#5D5D5C;}
	.st29{clip-path:url(#SVGID_4_);fill:#5E5E5D;}
	.st30{clip-path:url(#SVGID_4_);fill:#5F5F5E;}
	.st31{clip-path:url(#SVGID_4_);fill:#60605F;}
	.st32{clip-path:url(#SVGID_4_);fill:#616160;}
	.st33{clip-path:url(#SVGID_4_);fill:#626261;}
	.st34{clip-path:url(#SVGID_4_);fill:#636362;}
	.st35{clip-path:url(#SVGID_4_);fill:#646463;}
	.st36{clip-path:url(#SVGID_4_);fill:#656564;}
	.st37{clip-path:url(#SVGID_4_);fill:#666665;}
	.st38{clip-path:url(#SVGID_4_);fill:#676766;}
	.st39{clip-path:url(#SVGID_4_);fill:#686867;}
	.st40{clip-path:url(#SVGID_4_);fill:#696968;}
	.st41{clip-path:url(#SVGID_4_);fill:#6A6A69;}
	.st42{clip-path:url(#SVGID_4_);fill:#6B6B6A;}
	.st43{clip-path:url(#SVGID_4_);fill:#6C6C6B;}
	.st44{clip-path:url(#SVGID_4_);fill:#6D6D6C;}
	.st45{clip-path:url(#SVGID_4_);fill:#6E6E6D;}
	.st46{clip-path:url(#SVGID_4_);fill:#6F6F6E;}
	.st47{clip-path:url(#SVGID_4_);fill:#70706F;}
	.st48{clip-path:url(#SVGID_4_);fill:#717170;}
	.st49{clip-path:url(#SVGID_4_);fill:#727271;}
	.st50{clip-path:url(#SVGID_4_);fill:#737372;}
	.st51{clip-path:url(#SVGID_4_);fill:#747473;}
	.st52{clip-path:url(#SVGID_4_);fill:#757574;}
	.st53{clip-path:url(#SVGID_4_);fill:#767675;}
	.st54{clip-path:url(#SVGID_4_);fill:#777776;}
	.st55{clip-path:url(#SVGID_4_);fill:#787877;}
	.st56{clip-path:url(#SVGID_4_);fill:#797978;}
	.st57{clip-path:url(#SVGID_4_);fill:#7A7A79;}
	.st58{clip-path:url(#SVGID_4_);fill:#7B7B7A;}
	.st59{clip-path:url(#SVGID_4_);fill:#7C7C7B;}
	.st60{clip-path:url(#SVGID_4_);fill:#7D7D7C;}
	.st61{clip-path:url(#SVGID_4_);fill:#7E7E7D;}
	.st62{clip-path:url(#SVGID_4_);fill:#7F7F7E;}
	.st63{clip-path:url(#SVGID_4_);fill:#80807F;}
	.st64{clip-path:url(#SVGID_4_);fill:#808080;}
	.st65{clip-path:url(#SVGID_4_);fill:#818180;}
	.st66{clip-path:url(#SVGID_4_);fill:#828281;}
	.st67{clip-path:url(#SVGID_4_);fill:#838382;}
	.st68{clip-path:url(#SVGID_4_);fill:#848483;}
	.st69{clip-path:url(#SVGID_4_);fill:#858584;}
	.st70{clip-path:url(#SVGID_4_);fill:#868685;}
	.st71{clip-path:url(#SVGID_4_);fill:#878786;}
	.st72{clip-path:url(#SVGID_4_);fill:#888887;}
	.st73{clip-path:url(#SVGID_4_);fill:#898988;}
	.st74{clip-path:url(#SVGID_4_);fill:#8A8A89;}
	.st75{clip-path:url(#SVGID_4_);fill:#8B8B8A;}
	.st76{clip-path:url(#SVGID_4_);fill:#8C8C8B;}
	.st77{clip-path:url(#SVGID_4_);fill:#8D8D8C;}
	.st78{clip-path:url(#SVGID_4_);fill:#8E8E8D;}
	.st79{clip-path:url(#SVGID_4_);fill:#8F8F8E;}
	.st80{clip-path:url(#SVGID_4_);fill:#90908F;}
	.st81{clip-path:url(#SVGID_4_);fill:#919190;}
	.st82{clip-path:url(#SVGID_4_);fill:#929291;}
	.st83{clip-path:url(#SVGID_4_);fill:#939392;}
	.st84{clip-path:url(#SVGID_4_);fill:#949493;}
	.st85{clip-path:url(#SVGID_4_);fill:#959594;}
	.st86{clip-path:url(#SVGID_4_);fill:#969695;}
	.st87{clip-path:url(#SVGID_4_);fill:#979796;}
	.st88{clip-path:url(#SVGID_4_);fill:#989897;}
	.st89{clip-path:url(#SVGID_4_);fill:#999998;}
	.st90{clip-path:url(#SVGID_4_);fill:#9A9A99;}
	.st91{clip-path:url(#SVGID_4_);fill:#9B9B9A;}
	.st92{clip-path:url(#SVGID_4_);fill:#9C9C9B;}
	.st93{clip-path:url(#SVGID_4_);fill:#9D9D9C;}
	.st94{clip-path:url(#SVGID_4_);fill:#9E9E9D;}
	.st95{clip-path:url(#SVGID_4_);fill:#9F9F9E;}
	.st96{clip-path:url(#SVGID_4_);fill:#A0A09F;}
	.st97{clip-path:url(#SVGID_4_);fill:#A1A1A0;}
	.st98{clip-path:url(#SVGID_4_);fill:#A2A2A2;}
	.st99{clip-path:url(#SVGID_4_);fill:#A3A3A3;}
	.st100{clip-path:url(#SVGID_4_);fill:#A4A4A4;}
	.st101{clip-path:url(#SVGID_4_);fill:#A5A5A5;}
	.st102{clip-path:url(#SVGID_4_);fill:#A6A6A6;}
	.st103{clip-path:url(#SVGID_4_);fill:#A7A7A7;}
	.st104{clip-path:url(#SVGID_4_);fill:#A8A8A8;}
	.st105{clip-path:url(#SVGID_4_);fill:#A9A9A9;}
	.st106{clip-path:url(#SVGID_4_);fill:#AAAAAA;}
	.st107{clip-path:url(#SVGID_4_);fill:#ABABAB;}
	.st108{clip-path:url(#SVGID_4_);fill:#ACACAC;}
	.st109{clip-path:url(#SVGID_4_);fill:#ADADAD;}
	.st110{clip-path:url(#SVGID_4_);fill:#AEAEAE;}
	.st111{clip-path:url(#SVGID_4_);fill:#AFAFAF;}
	.st112{clip-path:url(#SVGID_4_);fill:#B0B0B0;}
	.st113{clip-path:url(#SVGID_4_);fill:#B1B1B1;}
	.st114{clip-path:url(#SVGID_4_);fill:#B2B2B2;}
	.st115{clip-path:url(#SVGID_4_);fill:#B3B3B3;}
	.st116{clip-path:url(#SVGID_4_);fill:#B4B4B4;}
	.st117{clip-path:url(#SVGID_4_);fill:#B5B5B5;}
	.st118{clip-path:url(#SVGID_4_);fill:#B6B6B6;}
	.st119{clip-path:url(#SVGID_4_);fill:#B7B7B7;}
	.st120{clip-path:url(#SVGID_4_);fill:#B8B8B8;}
	.st121{clip-path:url(#SVGID_4_);fill:#B9B9B9;}
	.st122{clip-path:url(#SVGID_4_);fill:#BABABA;}
	.st123{clip-path:url(#SVGID_4_);fill:#BBBBBB;}
	.st124{clip-path:url(#SVGID_4_);fill:#BCBCBC;}
	.st125{clip-path:url(#SVGID_4_);fill:#BDBDBD;}
	.st126{clip-path:url(#SVGID_4_);fill:#BEBEBE;}
	.st127{clip-path:url(#SVGID_4_);fill:#BFBFBF;}
	.st128{clip-path:url(#SVGID_4_);fill:#C0C0C0;}
	.st129{clip-path:url(#SVGID_4_);fill:#C1C1C1;}
	.st130{clip-path:url(#SVGID_4_);fill:#C2C2C2;}
	.st131{clip-path:url(#SVGID_4_);fill:#C3C3C3;}
	.st132{clip-path:url(#SVGID_4_);fill:#C4C4C4;}
	.st133{clip-path:url(#SVGID_4_);fill:#C5C5C5;}
	.st134{clip-path:url(#SVGID_4_);fill:#C6C6C6;}
	.st135{clip-path:url(#SVGID_4_);fill:#C7C7C7;}
	.st136{clip-path:url(#SVGID_4_);fill:#C8C8C8;}
	.st137{clip-path:url(#SVGID_4_);fill:#C9C9C9;}
	.st138{clip-path:url(#SVGID_4_);fill:#CACACA;}
	.st139{clip-path:url(#SVGID_4_);fill:#CBCBCB;}
	.st140{clip-path:url(#SVGID_4_);fill:#CCCCCC;}
	.st141{clip-path:url(#SVGID_4_);fill:#CDCDCD;}
	.st142{clip-path:url(#SVGID_4_);fill:#CECECE;}
	.st143{clip-path:url(#SVGID_4_);fill:#CFCFCF;}
	.st144{clip-path:url(#SVGID_4_);fill:#D0D0D0;}
	.st145{clip-path:url(#SVGID_4_);fill:#D1D1D1;}
	.st146{clip-path:url(#SVGID_4_);fill:#D2D2D2;}
	.st147{clip-path:url(#SVGID_4_);fill:#D3D3D3;}
	.st148{clip-path:url(#SVGID_4_);fill:#D4D4D4;}
	.st149{clip-path:url(#SVGID_4_);fill:#D5D5D5;}
	.st150{clip-path:url(#SVGID_4_);fill:#D6D6D6;}
	.st151{clip-path:url(#SVGID_4_);fill:#D7D7D7;}
	.st152{clip-path:url(#SVGID_4_);fill:#D8D8D8;}
	.st153{clip-path:url(#SVGID_4_);fill:#D9D9D9;}
	.st154{clip-path:url(#SVGID_4_);fill:#DADADA;}
	.st155{clip-path:url(#SVGID_4_);fill:#DBDBDB;}
	.st156{clip-path:url(#SVGID_4_);fill:#DCDCDC;}
	.st157{clip-path:url(#SVGID_4_);fill:#DDDDDD;}
	.st158{clip-path:url(#SVGID_4_);fill:#DEDEDE;}
	.st159{clip-path:url(#SVGID_4_);fill:#DFDFDF;}
	.st160{clip-path:url(#SVGID_4_);fill:#E0E0E0;}
	.st161{clip-path:url(#SVGID_4_);fill:#E1E1E1;}
	.st162{clip-path:url(#SVGID_4_);fill:#E2E2E2;}
	.st163{clip-path:url(#SVGID_4_);fill:#E3E3E3;}
	.st164{clip-path:url(#SVGID_4_);fill:#E4E4E4;}
	.st165{clip-path:url(#SVGID_4_);fill:#E5E5E5;}
	.st166{clip-path:url(#SVGID_4_);fill:#E6E6E6;}
	.st167{clip-path:url(#SVGID_4_);fill:#E7E7E7;}
	.st168{clip-path:url(#SVGID_4_);fill:#E8E8E8;}
	.st169{clip-path:url(#SVGID_4_);fill:#E9E9E9;}
	.st170{clip-path:url(#SVGID_4_);fill:#EAEAEA;}
	.st171{clip-path:url(#SVGID_4_);fill:#EBEBEB;}
	.st172{clip-path:url(#SVGID_4_);fill:#ECECEC;}
	.st173{clip-path:url(#SVGID_4_);fill:#EDEDED;}
	.st174{clip-path:url(#SVGID_4_);fill:#EEEEEE;}
	.st175{clip-path:url(#SVGID_4_);fill:#EFEFEF;}
	.st176{clip-path:url(#SVGID_4_);fill:#F0F0F0;}
	.st177{clip-path:url(#SVGID_4_);fill:#F1F1F1;}
	.st178{clip-path:url(#SVGID_4_);fill:#F2F2F2;}
	.st179{clip-path:url(#SVGID_4_);fill:#F3F3F3;}
	.st180{clip-path:url(#SVGID_4_);fill:#F4F4F4;}
	.st181{clip-path:url(#SVGID_4_);fill:#F5F5F5;}
	.st182{clip-path:url(#SVGID_4_);fill:#F6F6F6;}
	.st183{clip-path:url(#SVGID_4_);fill:#F7F7F7;}
	.st184{clip-path:url(#SVGID_4_);fill:#F8F8F8;}
	.st185{clip-path:url(#SVGID_4_);fill:#F9F9F9;}
	.st186{clip-path:url(#SVGID_4_);fill:#FAFAFA;}
	.st187{clip-path:url(#SVGID_4_);fill:#FBFBFB;}
	.st188{clip-path:url(#SVGID_4_);fill:#FFFFFF;}
	.st189{fill:#AAA9AF;}
</style>
<g>
	<g>
		<path class="st4" d="M419.64,139.3c0,39.75-29.06,71.96-69.07,71.96s-72.43-32.22-72.43-71.96s32.43-71.96,72.43-71.96
			c28.64,0,50.54,15.9,62.54,39.33l-20.43,5.86c-8-15.06-23.16-25.1-42.11-25.1c-28.85,0-52.22,23.22-52.22,51.88
			c0,28.66,23.37,52.47,52.22,52.47c25.69,0,42.96-16.07,47.59-37.91h-53.29v-21.26l74.02,0.21C419.1,134.7,419.64,137,419.64,139.3
			z"/>
		<path class="st4" d="M441.94,209.68V68.93h19.41v140.75H441.94z"/>
		<path class="st4" d="M478.58,68.93h21.9l42.11,96.65l42.11-96.65h21.9l-64.01,143.93L478.58,68.93z"/>
		<path class="st4" d="M721.13,167.38c0,24.27-17.06,42.3-45.48,42.3h-51.72V68.93h41.82c30.53,0,48.64,12.59,48.64,36.86
			c0,14.02-7.58,24.73-16.85,28.28C714.18,138.05,721.13,153.36,721.13,167.38z M643.35,124.74h25.57c16,0,25.27-6.07,25.27-18.2
			c0-11.92-9.26-18.2-25.27-18.2h-25.57V124.74z M700.92,167.21c0-15.48-11.16-23.05-28.64-23.05h-28.93v46.11h28.93
			C689.76,190.26,700.92,182.69,700.92,167.21z"/>
		<path class="st4" d="M849.61,68.93v78.74c0,37.03-17.54,63.6-54.6,63.6c-37.9,0-54.6-26.57-54.6-63.6V68.93h21.84v85.43
			c0,21.76,11.49,36.82,32.76,36.82c21.06,0,32.76-15.06,32.76-36.82V68.93H849.61z"/>
		<path class="st4" d="M969.58,209.68l-39.59-56.69l-39.59,56.69h-24.42L917.35,137l-48.01-68.07h24.22l36.43,52.3l36.43-52.3h24.22
			L942.62,137L994,209.68H969.58z"/>
	</g>
	<text transform="matrix(1 0 0 1 623.9326 262.6846)" class="st0 st5 st6">IT PAYS TO GIVE...</text>
	<linearGradient id="SVGID_1_" gradientUnits="userSpaceOnUse" x1="5.8996" y1="73.7171" x2="52.4092" y2="73.7171">
		<stop  offset="0" style="stop-color:#6F309A"/>
		<stop  offset="1" style="stop-color:#8058C2"/>
	</linearGradient>
	<polygon class="st1" points="52.41,47.19 5.9,74.44 52.41,100.24 	"/>
	<path class="st2" d="M239.78,158.3h-70.15c0,0,37.19,20.71,25.89,27.31c-11.3,6.59-71.55,39.08-71.55,39.08v53.95l115.8-66.66
		V158.3z"/>
	<polygon class="st0" points="5.24,74.83 5,74.97 5,208.2 123.98,278.63 123.98,224.68 52.41,182.31 52.41,101.23 	"/>
	<polygon class="st0" points="124.59,183.86 87.41,163.09 87.41,119.15 124.59,140.37 	"/>
	<polygon class="st2" points="124.59,183.86 161.76,163.09 161.76,119.15 124.59,140.37 	"/>
	<g>
		<polygon class="st3" points="87.41,119.15 124.59,140.37 161.76,119.15 124.59,97.93 		"/>
		<polygon class="st3" points="52.41,47.19 5.24,74.83 52.41,101.23 		"/>
		<polygon class="st3" points="239.78,73.56 123.98,7.02 86.31,28.52 86.31,80.46 126.48,56.92 197.87,99.13 239.78,73.58 		"/>
	</g>
	<polygon class="st2" points="197.88,126.44 239.78,126.44 239.78,73.58 197.87,99.13 197.88,99.14 	"/>
</g>
</svg>
