<?xml version="1.0" encoding="utf-8"?>
<!-- Generator: Adobe Illustrator 24.3.0, SVG Export Plug-In . SVG Version: 6.00 Build 0)  -->
<svg version="1.1" id="Layer_1" xmlns="http://www.w3.org/2000/svg" xmlns:xlink="http://www.w3.org/1999/xlink" x="0px" y="0px"
	 viewBox="0 0 500 500" style="enable-background:new 0 0 500 500;" xml:space="preserve">
<style type="text/css">
	.st0{fill:#E9EAEC;}
	.st1{fill:#AAA9AF;}
	.st2{fill:#FFFFFF;}
	.st3{fill:url(#SVGID_1_);}
	.st4{fill:url(#SVGID_2_);}
</style>
<g>
	<g>
		<path class="st0" d="M248.92,446.69c-83.64,0-155.2-52.51-183.59-126.27l38.83-13.24l-39.44-34.48L25.29,238.2l-10.15,51.4
			L5,340.99l34.82-11.88c32.02,84.36,113.65,144.49,209.1,144.49c104.29,0,192.12-71.77,216.73-168.5H437.7
			C413.81,386.81,338.25,446.69,248.92,446.69z"/>
		<path class="st1" d="M458.2,171.36C426.3,86.76,344.55,26.39,248.92,26.39c-104.29,0-192.11,71.77-216.72,168.5h27.95
			C84.04,113.19,159.6,53.31,248.92,53.31c83.09,0,154.2,51.83,182.97,124.81l-38.36,9.86l36.66,37.42l36.66,37.42l14.08-50.46
			L495,161.91L458.2,171.36z"/>
	</g>
	<g>
		<path class="st2" d="M230.43,199.12c0,48.39-32.73,74.36-67.96,74.36c-37.71,0-66.53-27.75-66.53-70.09
			c0-39.49,25.26-72.94,68.67-72.94C207.31,130.46,230.43,161.41,230.43,199.12z M142.91,201.97c0,22.06,6.76,37.36,20.99,37.36
			c12.81,0,19.57-12.81,19.57-37.36c0-21.35-5.34-37.36-20.28-37.36C148.6,164.61,142.91,180.98,142.91,201.97z M167.46,369.54
			L299.1,131.17h32.73L200.55,369.54H167.46z M404.06,295.18c0,48.03-32.73,74-67.96,74c-37.71,0-66.53-27.75-66.53-70.09
			c0-39.14,25.26-72.58,68.67-72.58C380.93,226.52,404.06,257.47,404.06,295.18z M316.53,298.03c0,22.06,6.76,37,20.99,37
			c12.81,0,19.57-12.81,19.57-37c0-21.7-5.34-37.36-20.28-37.36C322.23,260.67,316.53,277.04,316.53,298.03z"/>
	</g>
</g>
<g>
	<linearGradient id="SVGID_1_" gradientUnits="userSpaceOnUse" x1="986.6514" y1="-505.3158" x2="1022.5877" y2="-462.4886">
		<stop  offset="0" style="stop-color:#69AFE0"/>
		<stop  offset="0.0962" style="stop-color:#60ADDF"/>
		<stop  offset="0.256" style="stop-color:#46A6DC"/>
		<stop  offset="0.4587" style="stop-color:#1D9BD7"/>
		<stop  offset="0.5843" style="stop-color:#0094D3"/>
		<stop  offset="1" style="stop-color:#007FC3"/>
	</linearGradient>
	<path class="st3" d="M1007.77-464.18c-12.43,0-23.06-7.8-27.28-18.76l5.77-1.97l-5.86-5.12l-5.86-5.12l-1.51,7.64l-1.51,7.64
		l5.17-1.76c4.76,12.53,16.89,21.47,31.07,21.47c15.49,0,28.54-10.66,32.2-25.04h-4.15
		C1032.27-473.08,1021.04-464.18,1007.77-464.18z"/>
	<linearGradient id="SVGID_2_" gradientUnits="userSpaceOnUse" x1="992.9448" y1="-524.3137" x2="1028.6062" y2="-481.814">
		<stop  offset="0" style="stop-color:#4D4D4D"/>
		<stop  offset="1" style="stop-color:#1A1A1A"/>
	</linearGradient>
	<path class="st4" d="M1038.87-505.09c-4.74-12.57-16.89-21.54-31.09-21.54c-15.49,0-28.54,10.66-32.2,25.04h4.15
		c3.55-12.14,14.78-21.04,28.05-21.04c12.34,0,22.91,7.7,27.18,18.54l-5.7,1.46l5.45,5.56l5.45,5.56l2.09-7.5l2.09-7.5
		L1038.87-505.09z"/>
</g>
</svg>
