<?xml version="1.0" encoding="utf-8"?>
<!-- Generator: Adobe Illustrator 24.3.0, SVG Export Plug-In . SVG Version: 6.00 Build 0)  -->
<svg version="1.1" id="Layer_1" xmlns="http://www.w3.org/2000/svg" xmlns:xlink="http://www.w3.org/1999/xlink" x="0px" y="0px"
	 viewBox="0 0 500 500" style="enable-background:new 0 0 500 500;" xml:space="preserve">
<style type="text/css">
	.st0{fill:#E9EAEC;}
	.st1{fill:#AAA9AF;}
	.st2{fill:url(#SVGID_1_);}
	.st3{fill:url(#SVGID_2_);}
</style>
<g>
	<path class="st0" d="M248.92,446.69c-83.64,0-155.2-52.51-183.59-126.27l38.83-13.24l-39.44-34.48L25.29,238.2l-10.15,51.4
		L5,340.99l34.82-11.88c32.02,84.36,113.65,144.49,209.1,144.49c104.29,0,192.12-71.77,216.73-168.5H437.7
		C413.81,386.81,338.25,446.69,248.92,446.69z"/>
	<path class="st1" d="M458.2,171.36C426.3,86.76,344.55,26.39,248.92,26.39c-104.29,0-192.11,71.77-216.72,168.5h27.95
		C84.04,113.19,159.6,53.31,248.92,53.31c83.09,0,154.2,51.83,182.97,124.81l-38.36,9.86l36.66,37.42l36.66,37.42l14.08-50.46
		L495,161.91L458.2,171.36z"/>
</g>
<g>
	<linearGradient id="SVGID_1_" gradientUnits="userSpaceOnUse" x1="986.6514" y1="-505.3158" x2="1022.5877" y2="-462.4886">
		<stop  offset="0" style="stop-color:#69AFE0"/>
		<stop  offset="0.0962" style="stop-color:#60ADDF"/>
		<stop  offset="0.256" style="stop-color:#46A6DC"/>
		<stop  offset="0.4587" style="stop-color:#1D9BD7"/>
		<stop  offset="0.5843" style="stop-color:#0094D3"/>
		<stop  offset="1" style="stop-color:#007FC3"/>
	</linearGradient>
	<path class="st2" d="M1007.77-464.18c-12.43,0-23.06-7.8-27.28-18.76l5.77-1.97l-5.86-5.12l-5.86-5.12l-1.51,7.64l-1.51,7.64
		l5.17-1.76c4.76,12.53,16.89,21.47,31.07,21.47c15.49,0,28.54-10.66,32.2-25.04h-4.15
		C1032.27-473.08,1021.04-464.18,1007.77-464.18z"/>
	<linearGradient id="SVGID_2_" gradientUnits="userSpaceOnUse" x1="992.9448" y1="-524.3137" x2="1028.6062" y2="-481.814">
		<stop  offset="0" style="stop-color:#4D4D4D"/>
		<stop  offset="1" style="stop-color:#1A1A1A"/>
	</linearGradient>
	<path class="st3" d="M1038.87-505.09c-4.74-12.57-16.89-21.54-31.09-21.54c-15.49,0-28.54,10.66-32.2,25.04h4.15
		c3.55-12.14,14.78-21.04,28.05-21.04c12.34,0,22.91,7.7,27.18,18.54l-5.7,1.46l5.45,5.56l5.45,5.56l2.09-7.5l2.09-7.5
		L1038.87-505.09z"/>
</g>
<g>
	<path class="st0" d="M370.64,271.3h-4.49c-0.16,0-0.32,0.04-0.48,0.05c-0.32-0.02-0.63-0.05-0.95-0.05h0h0h-23.51h-28.07
		c-9.78,0-17.78,8-17.78,17.78v13.33c0,9.77,8,17.78,17.78,17.78h28.07h23.51h0h0c0.32,0,0.63-0.03,0.95-0.05
		c0.16,0.01,0.32,0.05,0.48,0.05h4.49c6.52,0,11.85-5.33,11.85-11.85v-5.93v-13.33v-5.93C382.5,276.63,377.16,271.3,370.64,271.3z
		 M319.54,304.63c-4.9,0-8.89-3.99-8.89-8.89c0-4.9,3.99-8.89,8.89-8.89c4.91,0,8.89,3.99,8.89,8.89
		C328.43,300.64,324.45,304.63,319.54,304.63z"/>
	<path class="st0" d="M254.46,125.99c-2.45-2.05-6.13-1.72-8.18,0.72l-29.76,35.46l119.1,31.91L254.46,125.99z"/>
	<path class="st0" d="M176.02,163.36c-3.09-0.83-6.29,1.02-7.12,4.11L158.31,207H338.9L176.02,163.36z"/>
	<path class="st0" d="M370.64,198.14v-9.82c0-3.26-2.67-5.93-5.93-5.93h-23.7h-1.26l18.76,15.74H370.64z"/>
	<path class="st1" d="M365.44,332c-0.24,0-0.47,0.03-0.72,0.03h-51.58c-16.34,0-29.63-13.29-29.63-29.63v-13.33
		c0-16.34,13.29-29.63,29.63-29.63h51.58c0.24,0,0.48,0.03,0.72,0.03c0.24-0.01,0.47-0.03,0.72-0.03h4.49V215.9H152.72
		c-0.01,0-0.03,0-0.04,0h-8.85c-1.63,0-2.97-1.34-2.97-2.96l0-5.35c0-0.08,0.04-0.15,0.05-0.23c-0.01-0.12-0.04-0.22-0.04-0.34
		c0-3.77,3.19-6.99,7.64-8.27l4.38-16.35h-5.74c-16.3,0-29.63,13.33-29.63,29.63v133.69c0,16.3,13.33,29.63,29.63,29.63h19.47
		h174.41h23.7c3.26,0,5.93-2.67,5.93-5.93v-15.17v-8.54v-13.69h-4.49C365.91,332.04,365.68,332.01,365.44,332z"/>
</g>
</svg>
