<?xml version="1.0" encoding="utf-8"?>
<!-- Generator: Adobe Illustrator 24.3.0, SVG Export Plug-In . SVG Version: 6.00 Build 0)  -->
<svg version="1.1" id="Layer_1" xmlns="http://www.w3.org/2000/svg" xmlns:xlink="http://www.w3.org/1999/xlink" x="0px" y="0px"
	 viewBox="0 0 500 500" style="enable-background:new 0 0 500 500;" xml:space="preserve">
<style type="text/css">
	.st0{fill:#E9EAEC;}
	.st1{fill:#AAA9AF;}
	.st2{fill:url(#SVGID_1_);}
	.st3{fill:url(#SVGID_2_);}
</style>
<g>
	<path class="st0" d="M446.69,251.08c0,83.64-52.51,155.2-126.27,183.59l-13.24-38.83l-34.48,39.44l-34.48,39.44l51.4,10.15
		l51.4,10.15l-11.88-34.82c84.36-32.02,144.49-113.65,144.49-209.1c0-104.29-71.77-192.12-168.5-216.73V62.3
		C386.81,86.19,446.69,161.75,446.69,251.08z"/>
	<path class="st1" d="M171.36,41.8C86.76,73.7,26.39,155.45,26.39,251.08c0,104.29,71.77,192.11,168.5,216.72v-27.95
		C113.19,415.96,53.31,340.4,53.31,251.08c0-83.09,51.83-154.2,124.81-182.97l9.86,38.36l37.42-36.66l37.42-36.66l-50.46-14.08
		L161.91,5L171.36,41.8z"/>
</g>
<g>
	<linearGradient id="SVGID_1_" gradientUnits="userSpaceOnUse" x1="986.6514" y1="-505.3158" x2="1022.5877" y2="-462.4886">
		<stop  offset="0" style="stop-color:#69AFE0"/>
		<stop  offset="0.0962" style="stop-color:#60ADDF"/>
		<stop  offset="0.256" style="stop-color:#46A6DC"/>
		<stop  offset="0.4587" style="stop-color:#1D9BD7"/>
		<stop  offset="0.5843" style="stop-color:#0094D3"/>
		<stop  offset="1" style="stop-color:#007FC3"/>
	</linearGradient>
	<path class="st2" d="M1007.77-464.18c-12.43,0-23.06-7.8-27.28-18.76l5.77-1.97l-5.86-5.12l-5.86-5.12l-1.51,7.64l-1.51,7.64
		l5.17-1.76c4.76,12.53,16.89,21.47,31.07,21.47c15.49,0,28.54-10.66,32.2-25.04h-4.15
		C1032.27-473.08,1021.04-464.18,1007.77-464.18z"/>
	<linearGradient id="SVGID_2_" gradientUnits="userSpaceOnUse" x1="992.9448" y1="-524.3137" x2="1028.6062" y2="-481.814">
		<stop  offset="0" style="stop-color:#4D4D4D"/>
		<stop  offset="1" style="stop-color:#1A1A1A"/>
	</linearGradient>
	<path class="st3" d="M1038.87-505.09c-4.74-12.57-16.89-21.54-31.09-21.54c-15.49,0-28.54,10.66-32.2,25.04h4.15
		c3.55-12.14,14.78-21.04,28.05-21.04c12.34,0,22.91,7.7,27.18,18.54l-5.7,1.46l5.45,5.56l5.45,5.56l2.09-7.5l2.09-7.5
		L1038.87-505.09z"/>
</g>
<g>
	<path class="st1" d="M275.26,331.27l-15.52-14.01c2.91,5.49,1.72,12.48-3.22,16.65l-8.58,7.24l10.15,9.16
		c4.63,4.18,11.84,3.81,16.01-0.82l1.99-2.21C280.26,342.65,279.89,335.44,275.26,331.27z"/>
	<path class="st1" d="M351.14,264.23l-10.64-9.6c-1.1-0.94-2.25-1.92-3.45-2.96c-1.63-1.41-3.32-2.87-5.21-4.45
		c-5.84-4.91-12.61-11.87-19.77-19.23c-5.53-5.68-11.25-11.55-16.7-16.63c-2.11-1.96-4.19-4.25-6.4-6.67
		c-5.19-5.69-11.06-12.13-15.79-12.13c-0.8,0-3.23,0-6.51,4.54c-10.97,15.19-28.79,22.11-40.71,22.11c-2.77,0-5.3-0.36-7.51-1.08
		c-7.52-2.44-10.14-6.42-11.02-9.33c-1.01-3.36-0.1-6.57,1.26-8.26c0.65-0.82,3.26-3.55,8.2-8.71c4.18-4.37,9.39-9.8,13.18-13.89
		c1.76-1.9,3.5-3.66,5.24-5.3c-11.24,1.61-22.47,4.94-29.79,8.93c-16.43,8.96-33.86,7.17-33.86,7.17s-29.47,74.98-30.37,79.76
		c-0.6,3.2,2.7,4.93,8.07,6.71c0.8-1.78,1.99-3.41,3.58-4.75l17.93-15.12c2.42-2.05,5.51-3.17,8.7-3.17c4,0,7.77,1.74,10.34,4.79
		l2.1,2.49c3.76,4.46,4.12,10.66,1.36,15.45c1.09-0.28,2.22-0.43,3.36-0.43c4,0,7.77,1.74,10.34,4.79l2.1,2.49
		c3.09,3.66,3.88,8.5,2.54,12.77l0.52-0.44c2.42-2.05,5.51-3.17,8.7-3.17c4,0,7.77,1.74,10.34,4.79l2.1,2.49
		c3.37,4,4.01,9.4,2.12,13.93l1.54-1.3c2.42-2.05,5.51-3.17,8.7-3.17c1.46,0,2.9,0.24,4.25,0.68c1.17-4.17,4.63-1.29,4.63-1.29
		l29.05,26.22c5.67,5.12,14.5,4.66,19.61-1.01l0.2-0.22c5.12-5.67,4.66-14.5-1.01-19.61l-26.77-24.16v0c-1.09-1-0.42-2.22-0.08-2.57
		c1.12-1.16,2.43,0.19,2.43,0.19l32.65,29.46c5.67,5.12,14.5,4.66,19.61-1.01l1.56-1.73c5.12-5.67,4.66-14.5-1.01-19.61
		l-32.65-29.46c-1.9-1.88-0.92-3.3-0.42-3.79c1.46-1.33,2.77-0.55,3.28-0.14l0.23,0.21l0,0h0l29.7,26.8
		c5.67,5.12,14.5,4.66,19.61-1.01l1.56-1.73C357.26,278.17,356.81,269.35,351.14,264.23z"/>
	<path class="st0" d="M312.75,172.59c-12.55-2.09-34.65-13.14-47.5-12.25c-12.85,0.9-25.09,11.95-32.56,20.02
		c-7.47,8.07-20.02,20.91-21.21,22.4c-1.19,1.49-2.99,8.36,8.07,11.95c11.05,3.58,32.56-3.58,44.21-19.72
		c11.65-16.13,23.78,4.17,34.06,13.74c12.48,11.64,26.12,27.14,36.33,35.74c11.31,9.52,16.58,15.24,25.5,17.14
		c0.3,0.3-13.14-89.02-13.14-89.02S325.3,174.68,312.75,172.59z"/>
	<path class="st0" d="M206.4,284.02l-2.1-2.49c-3.52-4.17-9.81-4.71-13.99-1.19l-17.93,15.12c-4.17,3.52-4.71,9.81-1.19,13.99
		l2.1,2.49c3.52,4.17,9.81,4.71,13.99,1.19l17.93-15.12C209.39,294.49,209.92,288.19,206.4,284.02z"/>
	<path class="st0" d="M188.06,275.71c4.17-3.52,4.71-9.81,1.19-13.99l-2.1-2.49c-3.52-4.17-9.81-4.71-13.99-1.19l-17.93,15.12
		c-4.17,3.52-4.71,9.81-1.19,13.99l2.1,2.49c3.52,4.17,9.81,4.71,13.99,1.19L188.06,275.71z"/>
	<path class="st0" d="M230.6,300.45l-2.1-2.49c-3.52-4.17-9.81-4.71-13.99-1.19l-17.93,15.12c-4.17,3.52-4.71,9.81-1.19,13.99
		l2.1,2.49c3.52,4.17,9.81,4.71,13.99,1.19l17.93-15.12C233.59,310.92,234.12,304.62,230.6,300.45z"/>
	<path class="st0" d="M255.39,317.18l-2.1-2.49c-3.52-4.17-9.81-4.71-13.99-1.19l-17.93,15.12c-4.17,3.52-4.71,9.81-1.19,13.99
		l2.1,2.49c3.52,4.17,9.81,4.71,13.99,1.19l17.93-15.12C258.38,327.65,258.91,321.35,255.39,317.18z"/>
	<path class="st0" d="M411.9,258.24l-14.18-98.89c-0.78-5.43-5.86-9.23-11.28-8.45l-28.43,4.08c-5.43,0.78-9.23,5.86-8.45,11.28
		l14.18,98.89c0.78,5.43,5.86,9.23,11.28,8.45l28.43-4.08C408.87,268.74,412.68,263.66,411.9,258.24z"/>
	<path class="st1" d="M163.31,167.1l-26.91-10.05c-5.14-1.92-10.91,0.72-12.83,5.85L88.63,256.5c-1.92,5.14,0.72,10.91,5.85,12.83
		l26.91,10.05c5.14,1.92,10.91-0.72,12.83-5.85l34.95-93.59C171.08,174.79,168.45,169.02,163.31,167.1z"/>
</g>
</svg>
