<?xml version="1.0" encoding="utf-8"?>
<!-- Generator: Adobe Illustrator 24.2.3, SVG Export Plug-In . SVG Version: 6.00 Build 0)  -->
<svg version="1.1" id="Layer_1" xmlns="http://www.w3.org/2000/svg" xmlns:xlink="http://www.w3.org/1999/xlink" x="0px" y="0px"
	 viewBox="0 0 1000 1000" style="enable-background:new 0 0 1000 1000;" xml:space="preserve">
<style type="text/css">
	.st0{fill:url(#XMLID_2_);}
	.st1{fill:#727176;}
	.st2{fill:#6633C8;}
	.st3{opacity:0.65;}
	.st4{fill:#AAA9AF;}
</style>
<g>
	<linearGradient id="XMLID_2_" gradientUnits="userSpaceOnUse" x1="34" y1="516.6572" x2="936.6994" y2="516.6572">
		<stop  offset="0.0354" style="stop-color:#6B24D3"/>
		<stop  offset="0.2945" style="stop-color:#7633D9"/>
		<stop  offset="0.7943" style="stop-color:#945CEA"/>
		<stop  offset="1" style="stop-color:#A26EF1"/>
	</linearGradient>
	<path id="XMLID_16_" class="st0" d="M936.7,693.47c0,26.49-5.22,55.39-15.65,86.7c-5.08,15.52-11.57,30.17-19.47,43.95
		c-7.89,13.78-17.46,26.69-28.7,38.73c-22.74,24.35-49.1,44.15-79.07,59.4c-30.24,15.25-59.14,22.88-86.7,22.88h-16.06
		c-19.27,0-37.93-1.61-55.99-4.82c-18.06-3.21-35.72-8.23-52.98-15.05c-17.26-6.82-34.38-15.39-51.38-25.69
		c-16.99-10.3-34.18-22.68-51.58-37.13c-17.66-14.45-34.38-30.24-50.17-47.36c-15.79-17.13-31.31-35.72-46.56-55.79
		c-29.17-39.6-45.22-76.93-48.17-111.98l-59.4-8.83c-40.94-6.15-73.12-10.57-96.53-13.25s-38.06-4.68-43.95-6.02
		c-22.21-5.08-40.67-15.92-55.39-32.51c-14.98-16.59-22.48-35.19-22.48-55.79c0-17.93,5.49-35.32,16.46-52.18
		c-11.24-8.56-20.54-19.13-27.9-31.71S34,420.93,34,406.48c0-6.42,0.87-12.98,2.61-19.67c1.74-6.69,4.15-13.04,7.22-19.07
		c3.08-6.02,6.76-11.64,11.04-16.86c4.28-5.22,8.83-9.83,13.65-13.85c-12.04-17.13-18.06-34.52-18.06-52.18
		c0-18.2,6.02-35.59,18.06-52.18c12.31-17.13,27.7-27.96,46.16-32.51c-0.8-4.01-1.47-7.83-2.01-11.44c-0.54-3.61-0.8-6.89-0.8-9.83
		c0-24.89,9.37-45.76,28.1-62.61c18.73-17.39,38.93-26.09,60.61-26.09c17.93,0,34.65,4.68,50.17,14.05l154.93,92.72
		c24.62,14.72,43.68,25.96,57.2,33.72s21.47,11.64,23.88,11.64c1.61,0,2.41-0.67,2.41-2.01l-0.8-3.21
		c-1.87-5.89-3.61-10.97-5.22-15.25c-1.61-4.28-2.81-7.89-3.61-10.84c-0.8-2.94-1.34-6.36-1.61-10.24c-0.27-3.88-0.4-8.5-0.4-13.85
		c0-14.98,2.14-28.56,6.42-40.74c4.28-12.18,10.37-22.54,18.26-31.11s17.46-15.19,28.7-19.87c11.24-4.68,23.82-7.02,37.73-7.02
		c20.87,0,39,6.09,54.39,18.26s26.96,28.56,34.72,49.17l6.02,16.06c6.96,17.93,13.04,34.72,18.26,50.37
		c5.22,15.65,9.83,30.57,13.85,44.75c7.76,26.22,14.32,48.97,19.67,68.24c5.35,19.27,9.5,35.05,12.44,47.36l4.42,33.72h6.02
		c24.89,0,50.44,8.7,76.66,26.09c13.38,8.83,25.49,18.86,36.32,30.1s20.94,23.95,30.3,38.13c9.1,13.91,17.06,28.5,23.88,43.75
		c6.82,15.25,12.51,31.58,17.06,48.97c4.82,17.39,8.36,33.52,10.64,48.37S936.7,680.35,936.7,693.47z M83.37,406.08
		c0,4.01,1,8.3,3.01,12.84s4.68,8.83,8.03,12.84c3.34,4.01,7.16,7.49,11.44,10.44c4.28,2.94,8.7,4.95,13.25,6.02l187.04,43.35
		c0-25.15,2.41-48.57,7.22-70.24l-174.6-52.98c-4.55-1.61-9.37-2.41-14.45-2.41c-11.51,0-21.41,4.55-29.7,13.65
		C87.12,388.69,83.37,397.52,83.37,406.08z M99.83,284.86c0,4.01,0.87,8.09,2.61,12.24c1.74,4.15,4.01,8.16,6.82,12.04
		c2.81,3.88,6.02,7.43,9.63,10.64c3.61,3.21,7.29,5.62,11.04,7.22c2.94,1.34,10.64,4.35,23.08,9.04
		c12.44,4.68,30.04,11.04,52.78,19.07s43.68,15.19,62.82,21.47c19.13,6.29,36.73,11.71,52.78,16.26c2.94-9.37,6.76-18.86,11.44-28.5
		c4.68-9.63,9.83-19.53,15.45-29.7l-188.65-85.1c-6.69-2.94-12.98-4.42-18.86-4.42c-5.62,0-10.9,1.14-15.85,3.41
		c-4.95,2.27-9.3,5.28-13.04,9.03c-3.75,3.75-6.69,7.96-8.83,12.64C100.9,274.89,99.83,279.78,99.83,284.86z M340.15,598.34
		c3.51-11.24,10.1-20.6,19.77-28.1c-2.94-6.96-5.15-13.91-6.62-20.87s-2.21-13.91-2.21-20.87c0-12.04,2.81-23.95,8.43-35.72
		c5.62-11.77,14.72-21.41,27.29-28.9v-4.01c0-9.1,2.01-18.26,6.02-27.49c4.01-9.23,9.43-17.53,16.26-24.89
		c6.82-7.36,14.72-13.25,23.68-17.66s18.53-6.49,28.7-6.22c12.04-19.8,29.97-31.71,53.78-35.72c0.8-3.75,2.27-7.36,4.42-10.84
		c2.14-3.48,3.21-6.96,3.21-10.44c0-3.75-1.87-7.09-5.62-10.03c-1.87-1.61-6.09-4.21-12.64-7.83s-15.59-8.5-27.09-14.65
		c-11.51-5.89-20.74-10.57-27.7-14.05s-11.64-5.62-14.05-6.42c-28.1-18.46-59.44-38.2-93.99-59.2
		c-34.57-21.01-72.9-43.55-115.01-67.63c-9.38-5.08-18.11-7.63-26.14-7.63c-9.13,0-18.25,4.28-27.36,12.84
		c-8.3,8.03-12.44,17.13-12.44,27.29c0,6.69,2.01,13.38,6.02,20.07s10.44,13.25,19.27,19.67c5.08,3.75,13.85,9.1,26.29,16.06
		c12.44,6.96,28.7,15.52,48.77,25.69l104.36,52.58c1.61-1.61,3.28-3.41,5.02-5.42c1.74-2.01,3.68-3.95,5.82-5.82
		s4.42-3.48,6.82-4.82c2.41-1.34,4.95-2.01,7.63-2.01c3.48,0,5.22,2.01,5.22,6.02c0,2.14-1.74,7.63-5.22,16.46
		c-14.98,27.83-27.9,57.4-38.73,88.71s-17.19,64.89-19.07,100.75l-0.4,10.84c-1.07,18.73-4.42,28.1-10.03,28.1
		c-5.08,0-9.63-8.96-13.65-26.89l-49.37-9.23l-102.35-20.47l-9.63-1.2c-6.15,0-11.77,1.2-16.86,3.61
		c-5.08,2.41-9.43,5.55-13.04,9.43c-3.61,3.88-6.49,8.36-8.63,13.45c-2.14,5.08-3.21,10.44-3.21,16.06
		c0,8.56,3.48,16.66,10.44,24.28c6.96,7.63,16.99,13.04,30.1,16.26c10.17,2.41,24.68,4.95,43.55,7.63
		c18.86,2.68,42.21,5.62,70.04,8.83c23.01,2.68,41.11,4.88,54.3,6.62C327.47,596.27,336.09,597.54,340.15,598.34z M889.34,693.47
		c0-35.86-6.29-70.64-18.86-104.36c-6.15-17.13-13.98-33.05-23.48-47.76c-9.5-14.72-21.07-28.36-34.72-40.94
		c-27.03-24.89-51.51-37.33-73.45-37.33c-17.13,0-25.69,6.29-25.69,18.86c0,2.41,0.4,4.95,1.2,7.63c0.8,2.68,2.14,5.22,4.01,7.63
		c10.97,11.24,21.41,22.81,31.31,34.72c9.9,11.91,19.53,24.68,28.9,38.33c19,27.03,28.5,42.95,28.5,47.76
		c0,3.75-1.27,6.96-3.81,9.63s-5.69,4.01-9.43,4.01c-5.08,0-8.96-2.27-11.64-6.82c-8.3-13.91-18.33-28.16-30.1-42.75
		c-11.77-14.58-24.08-30.44-36.93-47.56l-3.21-4.42l-28.1-30.1c-12.58-13.65-24.62-25.62-36.12-35.92
		c-11.51-10.3-21.67-18.93-30.5-25.89c-8.83-6.96-15.92-12.31-21.27-16.06c-5.35-3.75-8.43-6.02-9.23-6.82
		c-10.7-7.49-20.74-12.98-30.1-16.46s-17.93-5.22-25.69-5.22c-8.56,0-15.79,1.81-21.67,5.42c-5.89,3.61-8.83,8.09-8.83,13.45
		c0,3.21,0.94,6.15,2.81,8.83l17.26,17.26c19.27,19.27,37.93,38.73,55.99,58.4s35.52,39.94,52.38,60.81
		c1.87,2.14,3.95,4.48,6.22,7.02s4.42,5.08,6.42,7.63c2.01,2.54,3.75,5.15,5.22,7.83c1.47,2.68,2.21,5.08,2.21,7.22
		c0,3.48-1.4,6.42-4.21,8.83c-2.81,2.41-5.82,3.61-9.03,3.61c-5.08,0-8.56-1.61-10.44-4.82c-21.67-26.76-44.35-53.05-68.03-78.87
		c-23.68-25.82-48.37-51.58-74.05-77.27c-5.35-5.35-12.58-8.03-21.67-8.03c-3.21,0-6.49,0.8-9.83,2.41s-6.36,3.75-9.03,6.42
		c-2.68,2.68-4.88,5.62-6.62,8.83c-1.74,3.21-2.61,6.56-2.61,10.03c0,2.94,0.47,5.95,1.4,9.03c0.94,3.08,2.21,6.36,3.81,9.83
		c1.87,2.94,7.36,10.1,16.46,21.47c9.1,11.37,21.67,26.96,37.73,46.76c32.38,39.07,54.32,64.22,65.83,75.46
		c13.38,13.38,20.07,22.34,20.07,26.89c0,3.48-1.2,6.56-3.61,9.23c-2.41,2.68-5.89,4.01-10.44,4.01c-3.75,0-6.82-1.2-9.23-3.61
		c-11.24-12.04-23.28-25.29-36.12-39.74c-12.84-14.45-26.62-30.37-41.34-47.76c-14.45-17.39-26.02-31.51-34.72-42.35
		c-8.7-10.84-14.52-18.53-17.46-23.08c-3.48-2.14-6.02-3.21-7.63-3.21c-2.41,0-4.75,0.8-7.02,2.41c-2.27,1.61-4.42,3.68-6.42,6.22
		c-2.01,2.54-3.61,5.49-4.82,8.83c-1.2,3.34-1.81,6.76-1.81,10.24c0,12.31,3.48,23.55,10.44,33.72
		c10.44,21.67,21.21,41.68,32.31,60.01s23.48,34.45,37.13,48.37l24.89,24.48c10.7,10.7,16.06,17.66,16.06,20.87
		c0,4.28-1.4,7.69-4.21,10.24c-2.81,2.54-6.09,3.81-9.83,3.81c-6.15,0-19.27-10.84-39.34-32.51
		c-10.17-11.24-20.54-24.22-31.11-38.93c-10.57-14.72-21.21-31.58-31.91-50.57c-1.61-2.68-4.01-4.01-7.22-4.01
		c-9.9,0-14.85,10.17-14.85,30.5c0,26.22,10.03,53.38,30.1,81.48c10.17,14.45,21.14,28.7,32.91,42.75
		c11.77,14.05,24.02,27.29,36.73,39.74c12.71,12.44,25.76,23.95,39.13,34.52c13.38,10.57,26.89,19.73,40.54,27.49
		c9.37,5.35,17.73,9.9,25.09,13.65c7.36,3.75,13.98,6.69,19.87,8.83c12.04,4.28,25.22,7.76,39.54,10.44
		c14.32,2.68,29.77,4.01,46.36,4.01h14.05c21.94,0,45.09-6.29,69.44-18.86c24.62-12.58,46.02-28.77,64.22-48.57
		c17.66-19.8,30.64-42.14,38.93-67.03C885.32,738.55,889.34,715.14,889.34,693.47z M568.92,137.55c-14.2,0-24.77,4.62-31.73,13.85
		c-6.96,9.23-10.44,20.94-10.44,35.12c0,2.14,0.07,4.35,0.2,6.62s0.33,4.62,0.6,7.02c0.54,2.14,2.21,6.76,5.02,13.85
		c2.81,7.09,6.49,16.92,11.04,29.5l11.64,32.51c2.16,6.42,3.9,12.11,5.23,17.06c1.34,4.95,2.01,9.43,2.01,13.45
		c0,4.82-0.54,9.03-1.61,12.64c-1.07,3.61-2.48,7.02-4.23,10.24c-1.74,3.21-3.75,6.23-6.02,9.04c-2.27,2.81-4.48,5.82-6.62,9.03
		c10.17,0.8,21.16,3.55,32.93,8.23c11.79,4.68,24.1,11.57,36.96,20.67c0.54,0.54,7.22,5.75,20.09,15.65
		c12.84,9.9,29.32,23.68,49.4,41.34v-6.02c0-27.29-7.91-60.21-23.7-98.74l-17.28-61.81l-21.29-66.23
		c-8.56-26.22-15.92-43.22-22.09-50.98C592.62,141.57,582.58,137.55,568.92,137.55z"/>
	<g>
		<path id="XMLID_15_" class="st1" d="M263.19,683.03c5.62,0,8.43,2.27,8.43,6.82c0,2.14-1,4.62-3.01,7.43
			c-2.01,2.81-4.35,5.49-7.02,8.03c-2.68,2.54-5.15,4.82-7.43,6.82c-2.27,2.01-3.81,3.41-4.62,4.21
			c-15.25,12.58-28.5,23.61-39.74,33.11c-11.24,9.5-20.34,17.73-27.29,24.68l-22.48,16.46c-2.41,1.61-4.88,3.61-7.43,6.02
			c-2.54,2.41-5.22,4.75-8.03,7.02s-5.69,4.15-8.63,5.62c-2.94,1.47-6.02,2.21-9.23,2.21c-8.3,0-15.45-4.08-21.47-12.24
			c-6.02-8.16-12.11-20.27-18.26-36.32l-8.83-23.68c0-8.3,3.75-13.91,11.24-16.86c8.56-2.94,17.19-5.62,25.89-8.03
			s17.46-4.68,26.29-6.82l86.7-20.47C239.77,684.37,251.41,683.03,263.19,683.03z"/>
		<path id="XMLID_14_" class="st1" d="M346.27,784.98c1.61,0,2.81,0.33,3.61,1s1.47,1.87,2.01,3.61c0.54,1.74,0.87,4.21,1,7.43
			c0.13,3.21,0.2,7.63,0.2,13.25c0,10.17-0.47,21.27-1.4,33.31c-0.94,12.04-2.21,25.29-3.81,39.74l-7.22,63.82
			c0,14.45-4.95,21.67-14.85,21.67l-10.44-1.61l-9.23-2.01c-22.74-5.35-39.8-11.04-51.18-17.06c-11.37-6.02-17.06-12.78-17.06-20.27
			c0-10.17,8.56-26.09,25.69-47.76l8.43-10.44c21.41-27.29,37.8-48.23,49.17-62.82C332.56,792.27,340.92,784.98,346.27,784.98z"/>
		<path id="XMLID_13_" class="st1" d="M744.84,220.64l-3.21,0.4c-2.94,0-5.35-1.47-7.22-4.42c-1.87-2.94-2.68-7.49-2.41-13.65
			l2.41-42.14l2.81-41.74c1.87-29.43,4.08-51.44,6.62-66.03s7.29-21.88,14.25-21.88c5.35,0,10.7,0.6,16.06,1.81
			c5.35,1.2,10.64,2.74,15.85,4.62c5.22,1.87,10.44,3.75,15.65,5.62c5.22,1.87,10.37,3.34,15.45,4.42
			c13.91,3.21,20.87,8.83,20.87,16.86c0,5.89-2.27,11.64-6.82,17.26c-17.66,24.08-43.75,65.02-78.27,122.82
			c-2.14,2.41-3.95,5.35-5.42,8.83C749.99,216.89,747.78,219.3,744.84,220.64z"/>
		<path id="XMLID_12_" class="st1" d="M966,334.63c0,3.21-0.54,5.75-1.61,7.63c-1.07,1.87-3.21,3.34-6.42,4.42
			c-3.21,1.07-7.69,2.07-13.45,3.01c-5.75,0.94-13.18,1.94-22.28,3.01c-18.46,2.68-36.79,4.55-54.99,5.62s-33.72,1.61-46.56,1.61
			c-14.18,0-21.27-2.94-21.27-8.83c0-6.42,8.96-14.05,26.89-22.88c8.03-4.01,14.92-7.83,20.67-11.44
			c5.75-3.61,10.77-6.62,15.05-9.03l37.33-22.48c9.37-5.62,17.33-10.1,23.88-13.45s12.11-5.02,16.66-5.02
			c3.21,0,6.69,2.81,10.44,8.43c1.87,3.21,3.48,6.15,4.82,8.83c1.34,2.68,2.41,5.35,3.21,8.03
			C959.71,296.37,962.25,310.55,966,334.63z"/>
	</g>
</g>
</svg>
